<svg version="1.1" id="Layer_1" xmlns="http://www.w3.org/2000/svg" xmlns:xlink="http://www.w3.org/1999/xlink" x="0px" y="0px"
	 width="100%" viewBox="0 0 800 1463" enable-background="new 0 0 800 1463" xml:space="preserve">
<path fill="#000000" opacity="1.000000" stroke="none" 
	d="
M801.000000,570.000000 
	C801.000000,868.333313 801.000000,1166.166626 801.000000,1464.000000 
	C534.333313,1464.000000 267.666656,1464.000000 1.000000,1464.000000 
	C1.000000,976.333313 1.000000,488.666656 1.000000,1.000000 
	C267.666656,1.000000 534.333313,1.000000 801.000000,1.000000 
	C801.000000,190.500000 801.000000,380.000000 801.000000,570.000000 
M749.667236,665.806030 
	C751.149963,663.551331 752.632629,661.296570 754.709167,658.690125 
	C755.006531,658.108948 755.273315,657.509644 755.605835,656.949341 
	C761.134216,647.634888 766.092896,638.108521 766.986023,626.303955 
	C767.268250,625.202515 767.550537,624.101013 767.965271,622.107483 
	C767.921326,619.405151 767.877380,616.702820 767.965271,613.173096 
	C767.587891,610.782532 767.210449,608.392029 766.964172,605.257507 
	C766.927185,604.505188 766.890259,603.752930 766.730652,602.266724 
	C765.838562,599.809753 764.946411,597.352783 763.977478,594.154297 
	C760.268799,587.769714 756.560059,581.385132 752.805847,574.367065 
	C751.572327,573.228027 750.338867,572.088928 748.865906,570.400879 
	C748.259399,569.897461 747.652832,569.394043 746.779541,568.304504 
	C745.519714,567.219482 744.259888,566.134460 742.358032,564.808167 
	C735.024414,558.238098 726.332703,554.074158 717.127686,550.990723 
	C700.067444,545.276123 682.611328,544.574280 665.081360,548.162415 
	C655.251221,550.174438 645.250916,552.273682 637.419739,559.331421 
	C635.601685,560.969971 634.292480,563.173218 632.492737,565.439514 
	C643.307312,563.135071 652.953186,559.679138 662.722290,559.286194 
	C683.784058,558.439026 701.347839,566.927490 714.757385,583.322327 
	C725.594177,596.571472 728.201599,611.916321 724.983276,628.363037 
	C722.663147,640.219666 716.990601,650.488159 710.210938,660.512268 
	C700.701965,674.571777 688.712891,686.151611 675.649170,696.436218 
	C659.451538,709.187988 642.312195,720.742615 623.748779,730.030151 
	C618.762207,732.525085 614.446472,736.360840 609.822754,739.581116 
	C610.169006,740.217407 610.515259,740.853699 610.861511,741.489990 
	C618.179260,739.356750 625.519348,737.296753 632.810730,735.076904 
	C657.930908,727.429260 682.183899,717.680420 704.668579,704.014160 
	C717.146545,696.430176 729.471375,688.488098 739.649719,676.821472 
	C742.471497,673.561523 745.293213,670.301636 748.563171,666.890686 
	C748.846191,666.704712 749.007996,666.443604 749.667236,665.806030 
M439.799744,587.996643 
	C451.407043,579.962036 463.457611,572.489136 474.518219,563.761658 
	C491.282593,550.533508 505.413361,534.863098 513.113647,514.446960 
	C517.783020,502.066925 519.366760,489.470978 516.233032,476.202606 
	C512.998047,462.504974 505.735626,451.190582 497.652222,440.147125 
	C486.694183,425.176392 475.323120,410.370331 468.226776,393.098846 
	C465.069519,385.414551 462.806427,376.946533 462.268127,368.695221 
	C461.345581,354.553558 467.269531,341.982056 475.078339,330.522278 
	C487.099457,312.880798 502.833282,298.645233 519.358398,285.506317 
	C533.452087,274.300568 548.481995,264.225342 563.463562,254.196518 
	C578.035767,244.441681 593.040100,235.328720 607.921387,226.040771 
	C614.165344,222.143692 620.581116,218.521759 626.918762,214.774765 
	C625.791138,214.133545 624.960510,214.093765 624.222656,214.336304 
	C606.389526,220.198685 588.236633,225.263382 570.827271,232.194458 
	C550.519775,240.279343 530.618347,249.500992 510.991272,259.146301 
	C490.042084,269.441284 470.912476,282.613495 453.255554,298.044678 
	C436.782166,312.441528 423.189423,328.774139 414.007477,348.733276 
	C405.401855,367.439667 403.951721,387.113586 407.249146,406.934113 
	C410.372101,425.706146 418.318329,442.947083 429.208679,458.538208 
	C437.414246,470.285828 446.754608,481.234344 455.203827,492.820099 
	C462.913239,503.391418 467.546570,515.459106 467.801788,528.521179 
	C468.002716,538.803711 465.135712,548.787720 460.442352,558.086487 
	C454.846375,569.173462 447.085663,578.625305 437.880615,587.698242 
	C437.713257,588.037781 437.545868,588.377319 437.378510,588.716919 
	C437.943054,588.504211 438.507599,588.291443 439.799744,587.996643 
M706.831116,856.406982 
	C706.399109,856.356079 705.967041,856.305237 705.535034,856.254333 
	C705.788208,856.722168 706.041382,857.190063 706.752563,858.183289 
	C712.494568,866.971436 713.221436,873.580200 707.473694,878.742676 
	C702.184875,883.492859 696.170410,888.007263 689.678406,890.712219 
	C679.789551,894.832336 669.393982,898.218811 658.892822,900.291199 
	C633.238892,905.354004 607.456299,909.840759 581.616333,913.856689 
	C566.208435,916.251282 550.616638,917.579163 535.066956,918.914001 
	C516.175720,920.535706 497.248413,921.763550 478.324158,922.963867 
	C464.958344,923.811707 451.575867,924.437439 438.193054,924.964478 
	C425.930664,925.447571 413.656342,925.991882 401.389832,925.936401 
	C369.455597,925.792053 337.522278,925.375061 305.589905,924.964294 
	C299.314270,924.883545 293.042999,924.368713 286.772430,924.007080 
	C269.624084,923.018250 252.462189,922.206787 235.334412,920.936890 
	C221.397034,919.903564 207.395737,918.977539 193.612473,916.802124 
	C174.419769,913.772888 155.253113,910.248657 136.373169,905.700073 
	C126.187683,903.246155 116.386147,898.711731 106.870674,894.156494 
	C101.630371,891.647949 101.452530,886.883423 105.730713,882.927856 
	C109.314438,879.614380 113.255775,876.358887 117.608978,874.260864 
	C142.184753,862.416504 167.884476,854.611877 195.418991,853.967163 
	C196.259399,853.947449 197.090805,853.543579 198.700012,853.110779 
	C189.318069,847.230286 179.469452,847.164856 169.956284,847.213989 
	C160.976547,847.260376 151.896637,848.479248 143.051575,850.176575 
	C116.745590,855.224609 91.323616,863.203247 67.800148,876.207031 
	C59.977787,880.531311 52.008083,885.522705 45.988369,891.967529 
	C35.516022,903.179443 36.716679,911.530273 48.284130,918.805237 
	C55.073944,923.075500 63.101604,926.107483 70.978935,927.766418 
	C87.293625,931.202393 103.847282,933.573059 120.362480,935.969727 
	C140.319321,938.865784 160.317612,941.504333 180.337250,943.930054 
	C193.880890,945.571045 207.478561,946.819580 221.077148,947.939209 
	C235.709152,949.143921 250.362534,950.133850 265.021179,950.957947 
	C280.053009,951.803040 295.102112,952.880859 310.144318,952.891235 
	C343.744293,952.914368 377.347229,952.489197 410.943756,951.931824 
	C425.325623,951.693237 439.703613,950.822144 454.066498,949.957886 
	C467.062958,949.175903 480.060486,948.252808 493.014160,946.957886 
	C510.660767,945.193787 528.295532,943.242676 545.880554,940.950623 
	C561.632324,938.897583 577.432983,936.888611 592.993530,933.769897 
	C621.784729,927.999451 650.486206,921.754395 678.025635,911.120422 
	C691.842468,905.785217 705.194885,899.775452 716.935303,890.547791 
	C723.525574,885.367920 727.106995,875.800232 723.758728,869.634094 
	C720.180725,863.044922 714.125122,859.201843 706.831116,856.406982 
M751.004578,1313.500000 
	C751.004578,1287.177612 751.226624,1260.852539 750.915588,1234.533813 
	C750.747681,1220.327881 750.367615,1206.055664 748.811279,1191.953735 
	C747.116028,1176.593750 739.133057,1164.278564 726.764771,1154.937622 
	C712.686646,1144.305176 696.111633,1141.139160 679.172791,1140.139648 
	C659.179504,1138.960083 639.268372,1140.720703 619.909485,1146.101562 
	C607.547119,1149.537720 595.448059,1153.921265 583.035278,1157.943481 
	C585.623962,1168.765625 587.920776,1178.367798 590.162048,1187.737549 
	C590.941650,1187.859375 591.117310,1187.935303 591.268921,1187.901978 
	C591.897949,1187.763428 592.533752,1187.633301 593.142151,1187.426636 
	C618.339050,1178.873169 643.881897,1172.431030 670.815552,1176.068848 
	C680.898438,1177.430786 690.098633,1180.904907 696.383667,1189.750122 
	C706.317749,1203.730835 702.067810,1219.493530 703.068787,1235.992188 
	C690.002441,1235.992188 677.749023,1235.803833 665.503601,1236.037231 
	C647.947571,1236.371826 630.985474,1240.226929 614.999634,1247.216064 
	C598.816956,1254.291138 585.516479,1265.115845 577.791382,1281.619263 
	C570.494263,1297.208252 570.156799,1313.764160 573.316772,1330.046631 
	C577.286438,1350.501221 589.391968,1364.715332 609.915466,1371.116089 
	C622.134338,1374.926758 634.458191,1375.763062 647.187500,1375.142090 
	C663.753235,1374.333862 678.545471,1368.869995 692.283203,1360.111084 
	C698.289856,1356.281494 703.906250,1351.839966 709.671997,1347.696411 
	C710.913025,1355.493408 712.136963,1363.183105 713.331848,1370.689941 
	C726.122986,1370.689941 738.377075,1370.689941 751.004578,1370.689941 
	C751.004578,1351.754761 751.004578,1333.127319 751.004578,1313.500000 
M202.128128,1243.421265 
	C200.930008,1243.946655 199.755936,1244.537598 198.530136,1244.987427 
	C179.491379,1251.973877 164.018387,1263.227661 155.453445,1282.184692 
	C148.090881,1298.480591 147.742584,1315.404785 151.827286,1332.678345 
	C155.713013,1349.110352 164.944351,1360.884399 180.288162,1368.130371 
	C194.352676,1374.772339 209.072250,1375.772705 224.311218,1375.120361 
	C242.978165,1374.321533 259.415894,1367.924927 274.417175,1357.224976 
	C278.841888,1354.068970 283.159698,1350.762939 287.554932,1347.504639 
	C288.740540,1355.561890 289.854767,1363.134277 290.956116,1370.618896 
	C303.608643,1370.618896 315.669037,1370.618896 327.999969,1370.618896 
	C327.999969,1368.257080 327.999969,1366.271973 327.999969,1364.286743 
	C327.999969,1314.120605 328.038300,1263.954346 327.955658,1213.788452 
	C327.944244,1206.858398 327.915192,1199.841675 326.882599,1193.018066 
	C324.597168,1177.915161 317.942413,1165.289795 305.479248,1155.649780 
	C290.963745,1144.422485 274.067505,1141.062988 256.648041,1140.238525 
	C244.496872,1139.663208 232.205032,1140.944458 220.038010,1142.067871 
	C199.380875,1143.975220 179.933426,1150.460205 160.874176,1158.659912 
	C163.320694,1168.654541 165.701370,1178.380127 168.129044,1188.297607 
	C173.498688,1186.612915 177.974335,1185.146606 182.486618,1183.803589 
	C203.860794,1177.441528 225.443924,1172.847656 247.963974,1175.985474 
	C256.960449,1177.239136 265.019958,1180.134644 271.556183,1186.924805 
	C277.078308,1192.661621 279.981659,1199.483643 280.432312,1207.098511 
	C280.976318,1216.291016 280.561157,1225.540161 280.561157,1235.000000 
	C276.048798,1235.000000 271.892181,1235.061768 267.737976,1234.988647 
	C253.839645,1234.743896 239.985306,1235.096924 226.319641,1237.987305 
	C218.492203,1239.642700 210.684174,1241.389893 202.128128,1243.421265 
M274.988068,383.639069 
	C275.651276,395.529907 279.666687,406.531647 284.653015,417.100220 
	C297.636566,444.618927 316.676178,467.911194 337.449249,489.732880 
	C352.674042,505.726288 368.891205,520.776917 384.718414,536.194031 
	C390.996460,542.309387 397.409180,548.286743 403.786774,554.299194 
	C404.200165,554.688904 404.838959,554.839539 406.106628,555.461121 
	C405.696442,554.048889 405.636475,553.286987 405.282288,552.703857 
	C394.948944,535.689392 385.239044,518.249023 374.061066,501.807068 
	C360.438416,481.769073 346.098022,462.232635 336.056427,440.041046 
	C330.882355,428.606598 327.214142,416.606506 326.077972,404.087646 
	C323.839966,379.428314 331.649902,357.295715 344.717041,336.906250 
	C360.254669,312.661865 381.426788,293.644135 403.253326,275.272949 
	C419.688660,261.439423 436.289185,247.755875 452.018341,233.146576 
	C461.866455,223.999603 470.422394,213.421097 479.224335,203.197525 
	C492.442566,187.844391 503.507324,171.009399 512.585144,152.881790 
	C521.016846,136.044388 527.096802,118.294136 528.778687,99.617012 
	C531.020020,74.725647 527.714111,50.460716 514.700500,28.424450 
	C511.278442,22.629829 507.074188,17.297153 502.537964,10.755607 
	C504.193115,22.509579 505.602539,32.635082 507.047729,42.755478 
	C509.548523,60.267773 508.213074,77.639771 502.996368,94.376991 
	C499.220764,106.490662 494.207794,118.355759 488.487122,129.696350 
	C477.944275,150.596329 462.295624,167.838013 445.460693,183.717911 
	C430.690643,197.650085 414.771912,210.387100 399.082092,223.314072 
	C387.523529,232.837311 375.397888,241.669342 363.743011,251.079514 
	C352.794800,259.919189 341.743042,268.694519 331.454620,278.269470 
	C321.246429,287.769745 311.662994,297.987030 302.293945,308.332184 
	C289.495026,322.464539 278.870575,338.128296 275.558228,357.306030 
	C274.130951,365.569824 275.058533,374.240387 274.988068,383.639069 
M520.949280,1274.240479 
	C521.156982,1273.115112 521.264709,1271.960205 521.587524,1270.868896 
	C525.708313,1256.939941 530.406677,1243.155396 533.887939,1229.069580 
	C540.816223,1201.037231 547.079346,1172.840576 553.776733,1144.025513 
	C536.748901,1144.025513 520.794983,1143.977661 504.843323,1144.145142 
	C503.893860,1144.155151 502.308075,1145.775879 502.121704,1146.840332 
	C499.640106,1161.013550 497.446228,1175.236938 495.004303,1189.417358 
	C489.144379,1223.446411 479.810638,1256.610840 469.689911,1289.561523 
	C466.388428,1300.310181 462.508209,1310.881104 458.547943,1322.549072 
	C457.795746,1320.282349 457.315521,1319.113403 457.019196,1317.899414 
	C453.731934,1304.432129 450.877441,1290.843506 447.103027,1277.515137 
	C442.523102,1261.342407 437.126953,1245.402222 432.166626,1229.335815 
	C423.741028,1202.045410 415.346039,1174.745483 407.044739,1147.417114 
	C406.216125,1144.689209 404.840668,1143.918579 402.101257,1143.942505 
	C387.771698,1144.067749 373.440430,1143.993530 359.109802,1144.013428 
	C357.817780,1144.015259 356.526001,1144.192627 354.947479,1144.309814 
	C355.143402,1145.718384 355.159149,1146.880371 355.477570,1147.952393 
	C357.753052,1155.613525 360.057861,1163.266235 362.413361,1170.903076 
	C372.278717,1202.887817 382.169556,1234.864868 392.042572,1266.847290 
	C402.342865,1300.213867 412.692200,1333.565796 422.832886,1366.980835 
	C423.793365,1370.145874 425.117096,1371.089233 428.278412,1371.063232 
	C444.774231,1370.927612 461.274170,1370.849976 477.766907,1371.113647 
	C481.530029,1371.173706 483.293945,1369.896240 484.803131,1366.670898 
	C498.740173,1336.885254 510.079315,1306.093994 520.949280,1274.240479 
M112.328156,1064.000122 
	C97.385445,1064.000122 82.442734,1064.000122 67.000252,1064.000122 
	C67.000252,1065.984497 67.005096,1067.438232 66.999573,1068.891968 
	C66.660912,1157.947998 66.380142,1247.004395 65.900421,1336.059570 
	C65.846352,1346.098511 64.855354,1356.147949 63.967369,1366.163086 
	C62.685268,1380.623291 56.619850,1393.137817 46.229076,1403.026245 
	C37.640011,1411.199951 27.999001,1418.268311 18.364395,1426.205200 
	C25.522972,1434.626953 33.364845,1443.852661 41.203758,1453.074951 
	C47.356834,1450.187500 53.280739,1448.060547 58.502586,1444.806885 
	C66.681389,1439.710815 74.587105,1434.116577 82.244553,1428.257690 
	C94.248291,1419.073364 102.460884,1406.979248 108.089455,1393.003174 
	C115.943520,1373.501099 116.651054,1352.802979 116.775040,1332.400269 
	C117.304489,1245.277710 117.000191,1158.150146 116.999924,1071.024414 
	C116.999924,1069.858276 116.874214,1068.676147 117.021751,1067.529175 
	C117.403061,1064.564575 115.989799,1063.631958 112.328156,1064.000122 
M274.020477,843.516479 
	C288.680573,846.706848 303.230896,850.606506 318.030365,852.895996 
	C334.080994,855.379089 350.342377,857.409546 366.550293,857.737366 
	C387.229492,858.155579 407.975647,857.127869 428.638367,855.844666 
	C442.531128,854.981812 456.555847,853.629517 470.118103,850.656250 
	C491.753204,845.913147 513.127380,839.903870 534.457581,833.883179 
	C543.166321,831.424988 551.471985,827.538818 561.268005,823.803955 
	C558.498413,822.424438 557.103943,821.709167 555.692139,821.029907 
	C542.564697,814.714417 529.520325,808.215393 516.258179,802.196472 
	C511.570312,800.068970 507.722137,795.908020 501.563904,796.927490 
	C479.941742,800.507080 458.322205,804.263245 436.570709,806.851318 
	C418.262939,809.029724 399.788574,810.022644 381.357056,810.860291 
	C371.458435,811.310181 361.492218,810.388062 351.561523,809.966492 
	C346.785583,809.763733 342.007080,809.419250 337.254425,808.908875 
	C322.567444,807.331665 307.791870,806.237366 293.250366,803.775879 
	C284.552368,802.303650 276.004089,799.159241 267.819183,795.736633 
	C262.856750,793.661743 262.632141,788.203186 266.435944,784.130188 
	C268.986755,781.398865 271.833374,778.943787 274.766632,776.157104 
	C273.748749,776.102722 272.872467,775.812378 272.184296,776.055237 
	C259.581604,780.502441 246.757690,784.229492 235.752747,792.502441 
	C221.322479,803.350281 224.924164,815.761780 235.243408,824.507507 
	C246.233841,833.822083 259.565521,839.068726 274.020477,843.516479 
M445.783386,637.020691 
	C453.482910,636.346313 461.193848,635.780273 468.878906,634.968933 
	C477.693054,634.038269 486.539917,633.223328 495.273346,631.764160 
	C511.391663,629.071228 527.507568,626.275085 543.490479,622.889465 
	C555.197571,620.409607 567.172607,618.947693 577.802307,612.233093 
	C587.475464,606.122681 597.978882,601.324036 608.135620,595.983765 
	C610.231384,594.881775 612.412476,593.942078 615.882446,592.298462 
	C613.322815,592.160400 612.236694,591.914062 611.215149,592.075623 
	C601.039185,593.685852 590.884338,595.431519 580.702454,597.002197 
	C570.986023,598.501038 561.246399,599.850220 551.513489,601.241455 
	C540.327759,602.840393 529.161621,604.610046 517.943665,605.940735 
	C507.166595,607.219238 496.334656,608.036499 485.525940,609.047241 
	C467.834961,610.701660 450.153900,612.476746 432.447906,613.951721 
	C421.426605,614.869873 410.373657,615.479065 399.323303,615.960632 
	C381.121674,616.753845 362.907623,617.947205 344.704224,617.859192 
	C315.498047,617.718018 286.277374,617.100525 257.100494,615.823364 
	C242.210785,615.171631 227.339188,613.060242 212.588181,610.776794 
	C206.260880,609.797241 200.012497,607.216309 194.190460,604.405579 
	C189.436249,602.110352 188.987961,597.794800 193.111389,594.661987 
	C199.047729,590.151733 205.233368,585.500061 212.050491,582.714417 
	C227.147629,576.545105 242.603699,571.193970 258.107666,566.100586 
	C269.240906,562.442993 280.688599,559.742615 291.996002,556.615173 
	C281.588806,556.025940 271.264374,555.926575 261.095947,557.137268 
	C246.828094,558.835999 232.574997,561.012329 218.498611,563.882080 
	C197.676468,568.126953 177.420715,574.469116 157.911224,582.980713 
	C146.244644,588.070557 134.128281,592.167419 123.936813,600.355835 
	C116.119736,606.636536 117.887772,615.178467 124.901291,618.826782 
	C131.940399,622.488403 139.381638,625.695984 146.998550,627.869324 
	C171.836914,634.956238 197.491364,637.538879 223.084488,639.825500 
	C243.324341,641.633728 263.693817,642.827148 284.005035,642.817444 
	C320.202698,642.800110 356.402466,641.778870 392.595856,640.941528 
	C405.647491,640.639648 418.689758,639.758423 431.723022,638.932556 
	C436.122681,638.653748 440.481445,637.730469 445.783386,637.020691 
M425.379364,708.999939 
	C416.170166,709.662170 406.953461,710.971741 397.753174,710.864868 
	C370.552094,710.548828 343.343994,710.002563 316.165466,708.891113 
	C300.226715,708.239197 284.286194,706.767151 268.451202,704.814697 
	C260.784546,703.869446 253.164627,701.490173 245.889175,698.778931 
	C240.567001,696.795593 236.468079,692.506104 238.161804,686.055725 
	C239.080246,682.557800 241.123367,679.125183 243.428146,676.287720 
	C245.619293,673.590210 248.811707,671.706055 251.563873,669.464294 
	C251.080811,668.929260 250.597748,668.394287 250.114685,667.859314 
	C233.381470,673.080811 217.215057,679.547974 203.567963,691.003662 
	C196.967270,696.544312 194.992569,705.348450 199.100555,711.774414 
	C201.356552,715.303467 204.593552,718.532715 208.069519,720.894409 
	C219.307938,728.529968 232.002151,733.090454 245.165695,735.886963 
	C260.179871,739.076599 275.325287,741.798218 290.526215,743.914856 
	C304.350494,745.839783 318.301239,747.222168 332.241058,747.851562 
	C346.913757,748.514099 361.641144,748.130859 376.341858,747.962341 
	C390.442963,747.800781 404.564850,747.728638 418.632446,746.874329 
	C431.235748,746.108887 443.788025,744.422058 456.343506,742.974426 
	C467.421600,741.697205 478.520874,740.484436 489.523163,738.702087 
	C501.283325,736.797058 513.003906,734.539551 524.628540,731.931274 
	C542.385559,727.947083 560.045471,723.529785 578.211487,719.185181 
	C577.287048,718.063293 577.051331,717.486938 576.655273,717.338501 
	C562.545654,712.050598 549.797546,704.558533 538.689148,694.300964 
	C537.768005,693.450317 535.939148,692.991760 534.670288,693.198669 
	C519.190918,695.722656 503.783997,698.728088 488.265717,700.967346 
	C467.660187,703.940735 446.973083,706.348572 425.379364,708.999939 
M174.249664,970.700073 
	C173.244247,970.574951 172.238815,970.449829 171.233383,970.324646 
	C173.237213,972.552307 175.344650,973.819092 177.574173,974.811707 
	C180.258621,976.006958 183.005493,977.094604 185.796341,978.013123 
	C215.871124,987.911621 247.114746,991.512451 278.367157,994.940735 
	C290.646454,996.287659 302.982819,997.227905 315.317352,997.929321 
	C331.346771,998.840698 347.394775,999.611206 363.444885,999.923706 
	C380.770996,1000.261047 398.110046,1000.129456 415.441193,999.964844 
	C434.047577,999.788086 452.660583,999.594849 471.253540,998.929382 
	C489.915222,998.261353 508.558350,997.048279 527.204468,995.983948 
	C537.251770,995.410522 547.334106,995.042725 557.319519,993.883972 
	C574.580139,991.881104 591.832275,989.675415 608.986023,986.919861 
	C626.085266,984.172974 643.152344,981.069702 660.064270,977.352539 
	C680.820129,972.790588 701.157715,966.536926 720.495911,957.666504 
	C735.964783,950.570862 750.410889,941.747925 760.861328,927.674500 
	C765.174194,921.866455 768.386658,912.233337 767.341492,906.869751 
	C760.251282,915.434265 751.676086,922.184998 741.662720,926.564514 
	C726.719849,933.099915 711.788879,940.096802 696.189209,944.596252 
	C671.444580,951.733398 646.295227,957.677917 621.047119,962.794373 
	C599.406799,967.179688 577.422791,969.952026 555.524963,972.958252 
	C538.128601,975.346619 520.652405,977.211243 503.174500,978.930725 
	C489.726166,980.253784 476.231750,981.209045 462.736603,981.930969 
	C445.871704,982.833252 428.986084,983.852539 412.107544,983.886536 
	C380.836853,983.949646 349.564087,983.389954 318.293701,982.972534 
	C306.351318,982.813171 294.411194,982.390320 282.474030,981.973083 
	C276.863251,981.776917 271.251678,981.427673 265.658386,980.941711 
	C251.232056,979.688416 236.810822,978.370850 222.397552,976.975708 
	C215.695618,976.326965 209.008316,975.504639 202.329712,974.642334 
	C193.225128,973.466736 184.135162,972.177856 174.249664,970.700073 
M785.107483,1147.684814 
	C784.323303,1150.017700 783.539124,1152.350464 782.344482,1155.904297 
	C780.874390,1152.064819 779.725708,1149.567139 778.963318,1146.956787 
	C777.793823,1142.952148 775.067871,1143.969238 772.214233,1144.276123 
	C772.214233,1150.570312 772.214233,1156.513062 772.214233,1163.416016 
	C773.798889,1162.617432 775.437744,1162.324707 775.783325,1161.494141 
	C776.318787,1160.207153 775.981140,1158.553345 775.996460,1157.054810 
	C776.009827,1155.751953 775.999268,1154.448853 775.999268,1153.145996 
	C777.618286,1155.551147 778.204956,1158.104370 779.294922,1160.420898 
	C779.805969,1161.507080 781.212341,1162.623169 782.356018,1162.800049 
	C783.101196,1162.915283 784.364380,1161.514160 784.934387,1160.526245 
	C785.953308,1158.760376 786.623840,1156.793457 787.440063,1154.910645 
	C787.699585,1154.959229 787.959106,1155.007935 788.218628,1155.056641 
	C788.218628,1157.622681 788.218628,1160.188721 788.218628,1162.751831 
	C789.969360,1162.751831 791.239258,1162.751831 792.707397,1162.751831 
	C792.707397,1156.443481 792.707397,1150.363403 792.707397,1142.365356 
	C789.596252,1144.366455 787.553650,1145.680298 785.107483,1147.684814 
M763.372498,1144.000000 
	C760.422180,1144.000000 757.471802,1144.000000 754.653809,1144.000000 
	C752.454285,1149.172729 757.107666,1147.384155 759.158569,1148.729248 
	C759.158569,1153.347290 759.158569,1158.065674 759.158569,1163.121338 
	C761.093201,1162.896240 762.464661,1162.736694 764.153320,1162.540161 
	C764.153320,1157.556763 764.153320,1152.971924 764.153320,1149.638916 
	C766.473267,1147.864258 767.967773,1146.721069 769.462280,1145.577759 
	C769.199219,1145.127075 768.936157,1144.676392 768.673096,1144.225708 
	C767.217224,1144.150513 765.761414,1144.075195 763.372498,1144.000000 
z"/>
<path fill="#5382A1" opacity="1.000000" stroke="none" 
	d="
M751.004578,1314.000000 
	C751.004578,1333.127319 751.004578,1351.754761 751.004578,1370.689941 
	C738.377075,1370.689941 726.122986,1370.689941 713.331848,1370.689941 
	C712.136963,1363.183105 710.913025,1355.493408 709.671997,1347.696411 
	C703.906250,1351.839966 698.289856,1356.281494 692.283203,1360.111084 
	C678.545471,1368.869995 663.753235,1374.333862 647.187500,1375.142090 
	C634.458191,1375.763062 622.134338,1374.926758 609.915466,1371.116089 
	C589.391968,1364.715332 577.286438,1350.501221 573.316772,1330.046631 
	C570.156799,1313.764160 570.494263,1297.208252 577.791382,1281.619263 
	C585.516479,1265.115845 598.816956,1254.291138 614.999634,1247.216064 
	C630.985474,1240.226929 647.947571,1236.371826 665.503601,1236.037231 
	C677.749023,1235.803833 690.002441,1235.992188 703.068787,1235.992188 
	C702.067810,1219.493530 706.317749,1203.730835 696.383667,1189.750122 
	C690.098633,1180.904907 680.898438,1177.430786 670.815552,1176.068848 
	C643.881897,1172.431030 618.339050,1178.873169 593.142151,1187.426636 
	C592.533752,1187.633301 591.897949,1187.763428 591.268921,1187.901978 
	C591.117310,1187.935303 590.941650,1187.859375 590.162048,1187.737549 
	C587.920776,1178.367798 585.623962,1168.765625 583.035278,1157.943481 
	C595.448059,1153.921265 607.547119,1149.537720 619.909485,1146.101562 
	C639.268372,1140.720703 659.179504,1138.960083 679.172791,1140.139648 
	C696.111633,1141.139160 712.686646,1144.305176 726.764771,1154.937622 
	C739.133057,1164.278564 747.116028,1176.593750 748.811279,1191.953735 
	C750.367615,1206.055664 750.747681,1220.327881 750.915588,1234.533813 
	C751.226624,1260.852539 751.004578,1287.177612 751.004578,1314.000000 
M626.449890,1282.040771 
	C618.758606,1290.866333 617.748962,1301.629883 619.254333,1312.317749 
	C620.751648,1322.949219 625.407166,1332.343140 636.247742,1337.074463 
	C644.937866,1340.867432 653.882446,1341.304321 663.051208,1339.497192 
	C676.205322,1336.904419 687.287231,1330.021240 697.972839,1322.415894 
	C701.316345,1320.036011 703.438965,1317.200439 703.180603,1312.287842 
	C702.604248,1301.328735 703.000549,1290.318481 703.000549,1279.328979 
	C703.000549,1274.713135 703.000549,1270.097412 703.000549,1265.000122 
	C701.011230,1265.000122 699.554626,1264.938721 698.104492,1265.009766 
	C684.742615,1265.664429 671.268738,1265.497803 658.055054,1267.268799 
	C646.570496,1268.807983 635.250916,1272.268677 626.449890,1282.040771 
z"/>
<path fill="#5382A1" opacity="1.000000" stroke="none" 
	d="
M202.497772,1243.258545 
	C210.684174,1241.389893 218.492203,1239.642700 226.319641,1237.987305 
	C239.985306,1235.096924 253.839645,1234.743896 267.737976,1234.988647 
	C271.892181,1235.061768 276.048798,1235.000000 280.561157,1235.000000 
	C280.561157,1225.540161 280.976318,1216.291016 280.432312,1207.098511 
	C279.981659,1199.483643 277.078308,1192.661621 271.556183,1186.924805 
	C265.019958,1180.134644 256.960449,1177.239136 247.963974,1175.985474 
	C225.443924,1172.847656 203.860794,1177.441528 182.486618,1183.803589 
	C177.974335,1185.146606 173.498688,1186.612915 168.129044,1188.297607 
	C165.701370,1178.380127 163.320694,1168.654541 160.874176,1158.659912 
	C179.933426,1150.460205 199.380875,1143.975220 220.038010,1142.067871 
	C232.205032,1140.944458 244.496872,1139.663208 256.648041,1140.238525 
	C274.067505,1141.062988 290.963745,1144.422485 305.479248,1155.649780 
	C317.942413,1165.289795 324.597168,1177.915161 326.882599,1193.018066 
	C327.915192,1199.841675 327.944244,1206.858398 327.955658,1213.788452 
	C328.038300,1263.954346 327.999969,1314.120605 327.999969,1364.286743 
	C327.999969,1366.271973 327.999969,1368.257080 327.999969,1370.618896 
	C315.669037,1370.618896 303.608643,1370.618896 290.956116,1370.618896 
	C289.854767,1363.134277 288.740540,1355.561890 287.554932,1347.504639 
	C283.159698,1350.762939 278.841888,1354.068970 274.417175,1357.224976 
	C259.415894,1367.924927 242.978165,1374.321533 224.311218,1375.120361 
	C209.072250,1375.772705 194.352676,1374.772339 180.288162,1368.130371 
	C164.944351,1360.884399 155.713013,1349.110352 151.827286,1332.678345 
	C147.742584,1315.404785 148.090881,1298.480591 155.453445,1282.184692 
	C164.018387,1263.227661 179.491379,1251.973877 198.530136,1244.987427 
	C199.755936,1244.537598 200.930008,1243.946655 202.497772,1243.258545 
M202.449234,1326.991943 
	C203.199341,1328.061523 203.813004,1329.266724 204.720459,1330.179932 
	C214.949112,1340.472412 227.505783,1342.124634 240.986328,1339.476440 
	C254.797211,1336.763428 266.407654,1329.466553 277.391022,1321.064331 
	C279.828766,1319.199707 281.172485,1316.977051 281.109711,1313.487305 
	C280.849426,1299.011353 281.008057,1284.527954 280.989441,1270.047363 
	C280.987396,1268.453247 280.834900,1266.859375 280.744507,1265.117920 
	C261.120880,1264.692871 242.021072,1264.703125 223.409332,1270.072632 
	C214.638016,1272.603027 206.648056,1277.135498 202.172653,1285.116821 
	C194.632080,1298.564209 194.539307,1312.621216 202.449234,1326.991943 
z"/>
<path fill="#F8981D" opacity="1.000000" stroke="none" 
	d="
M274.952209,383.182617 
	C275.058533,374.240387 274.130951,365.569824 275.558228,357.306030 
	C278.870575,338.128296 289.495026,322.464539 302.293945,308.332184 
	C311.662994,297.987030 321.246429,287.769745 331.454620,278.269470 
	C341.743042,268.694519 352.794800,259.919189 363.743011,251.079514 
	C375.397888,241.669342 387.523529,232.837311 399.082092,223.314072 
	C414.771912,210.387100 430.690643,197.650085 445.460693,183.717911 
	C462.295624,167.838013 477.944275,150.596329 488.487122,129.696350 
	C494.207794,118.355759 499.220764,106.490662 502.996368,94.376991 
	C508.213074,77.639771 509.548523,60.267773 507.047729,42.755478 
	C505.602539,32.635082 504.193115,22.509579 502.537964,10.755607 
	C507.074188,17.297153 511.278442,22.629829 514.700500,28.424450 
	C527.714111,50.460716 531.020020,74.725647 528.778687,99.617012 
	C527.096802,118.294136 521.016846,136.044388 512.585144,152.881790 
	C503.507324,171.009399 492.442566,187.844391 479.224335,203.197525 
	C470.422394,213.421097 461.866455,223.999603 452.018341,233.146576 
	C436.289185,247.755875 419.688660,261.439423 403.253326,275.272949 
	C381.426788,293.644135 360.254669,312.661865 344.717041,336.906250 
	C331.649902,357.295715 323.839966,379.428314 326.077972,404.087646 
	C327.214142,416.606506 330.882355,428.606598 336.056427,440.041046 
	C346.098022,462.232635 360.438416,481.769073 374.061066,501.807068 
	C385.239044,518.249023 394.948944,535.689392 405.282288,552.703857 
	C405.636475,553.286987 405.696442,554.048889 406.106628,555.461121 
	C404.838959,554.839539 404.200165,554.688904 403.786774,554.299194 
	C397.409180,548.286743 390.996460,542.309387 384.718414,536.194031 
	C368.891205,520.776917 352.674042,505.726288 337.449249,489.732880 
	C316.676178,467.911194 297.636566,444.618927 284.653015,417.100220 
	C279.666687,406.531647 275.651276,395.529907 274.952209,383.182617 
z"/>
<path fill="#5382A1" opacity="1.000000" stroke="none" 
	d="
M520.770264,1274.608398 
	C510.079315,1306.093994 498.740173,1336.885254 484.803131,1366.670898 
	C483.293945,1369.896240 481.530029,1371.173706 477.766907,1371.113647 
	C461.274170,1370.849976 444.774231,1370.927612 428.278412,1371.063232 
	C425.117096,1371.089233 423.793365,1370.145874 422.832886,1366.980835 
	C412.692200,1333.565796 402.342865,1300.213867 392.042572,1266.847290 
	C382.169556,1234.864868 372.278717,1202.887817 362.413361,1170.903076 
	C360.057861,1163.266235 357.753052,1155.613525 355.477570,1147.952393 
	C355.159149,1146.880371 355.143402,1145.718384 354.947479,1144.309814 
	C356.526001,1144.192627 357.817780,1144.015259 359.109802,1144.013428 
	C373.440430,1143.993530 387.771698,1144.067749 402.101257,1143.942505 
	C404.840668,1143.918579 406.216125,1144.689209 407.044739,1147.417114 
	C415.346039,1174.745483 423.741028,1202.045410 432.166626,1229.335815 
	C437.126953,1245.402222 442.523102,1261.342407 447.103027,1277.515137 
	C450.877441,1290.843506 453.731934,1304.432129 457.019196,1317.899414 
	C457.315521,1319.113403 457.795746,1320.282349 458.547943,1322.549072 
	C462.508209,1310.881104 466.388428,1300.310181 469.689911,1289.561523 
	C479.810638,1256.610840 489.144379,1223.446411 495.004303,1189.417358 
	C497.446228,1175.236938 499.640106,1161.013550 502.121704,1146.840332 
	C502.308075,1145.775879 503.893860,1144.155151 504.843323,1144.145142 
	C520.794983,1143.977661 536.748901,1144.025513 553.776733,1144.025513 
	C547.079346,1172.840576 540.816223,1201.037231 533.887939,1229.069580 
	C530.406677,1243.155396 525.708313,1256.939941 521.587524,1270.868896 
	C521.264709,1271.960205 521.156982,1273.115112 520.770264,1274.608398 
z"/>
<path fill="#5382A1" opacity="1.000000" stroke="none" 
	d="
M707.068970,856.916992 
	C714.125122,859.201843 720.180725,863.044922 723.758728,869.634094 
	C727.106995,875.800232 723.525574,885.367920 716.935303,890.547791 
	C705.194885,899.775452 691.842468,905.785217 678.025635,911.120422 
	C650.486206,921.754395 621.784729,927.999451 592.993530,933.769897 
	C577.432983,936.888611 561.632324,938.897583 545.880554,940.950623 
	C528.295532,943.242676 510.660767,945.193787 493.014160,946.957886 
	C480.060486,948.252808 467.062958,949.175903 454.066498,949.957886 
	C439.703613,950.822144 425.325623,951.693237 410.943756,951.931824 
	C377.347229,952.489197 343.744293,952.914368 310.144318,952.891235 
	C295.102112,952.880859 280.053009,951.803040 265.021179,950.957947 
	C250.362534,950.133850 235.709152,949.143921 221.077148,947.939209 
	C207.478561,946.819580 193.880890,945.571045 180.337250,943.930054 
	C160.317612,941.504333 140.319321,938.865784 120.362480,935.969727 
	C103.847282,933.573059 87.293625,931.202393 70.978935,927.766418 
	C63.101604,926.107483 55.073944,923.075500 48.284130,918.805237 
	C36.716679,911.530273 35.516022,903.179443 45.988369,891.967529 
	C52.008083,885.522705 59.977787,880.531311 67.800148,876.207031 
	C91.323616,863.203247 116.745590,855.224609 143.051575,850.176575 
	C151.896637,848.479248 160.976547,847.260376 169.956284,847.213989 
	C179.469452,847.164856 189.318069,847.230286 198.700012,853.110779 
	C197.090805,853.543579 196.259399,853.947449 195.418991,853.967163 
	C167.884476,854.611877 142.184753,862.416504 117.608978,874.260864 
	C113.255775,876.358887 109.314438,879.614380 105.730713,882.927856 
	C101.452530,886.883423 101.630371,891.647949 106.870674,894.156494 
	C116.386147,898.711731 126.187683,903.246155 136.373169,905.700073 
	C155.253113,910.248657 174.419769,913.772888 193.612473,916.802124 
	C207.395737,918.977539 221.397034,919.903564 235.334412,920.936890 
	C252.462189,922.206787 269.624084,923.018250 286.772430,924.007080 
	C293.042999,924.368713 299.314270,924.883545 305.589905,924.964294 
	C337.522278,925.375061 369.455597,925.792053 401.389832,925.936401 
	C413.656342,925.991882 425.930664,925.447571 438.193054,924.964478 
	C451.575867,924.437439 464.958344,923.811707 478.324158,922.963867 
	C497.248413,921.763550 516.175720,920.535706 535.066956,918.914001 
	C550.616638,917.579163 566.208435,916.251282 581.616333,913.856689 
	C607.456299,909.840759 633.238892,905.354004 658.892822,900.291199 
	C669.393982,898.218811 679.789551,894.832336 689.678406,890.712219 
	C696.170410,888.007263 702.184875,883.492859 707.473694,878.742676 
	C713.221436,873.580200 712.494568,866.971436 706.719727,857.738037 
	C706.814148,857.167480 706.941528,857.042236 707.068970,856.916992 
z"/>
<path fill="#5382A1" opacity="1.000000" stroke="none" 
	d="
M112.807129,1064.000732 
	C115.989799,1063.631958 117.403061,1064.564575 117.021751,1067.529175 
	C116.874214,1068.676147 116.999924,1069.858276 116.999924,1071.024414 
	C117.000191,1158.150146 117.304489,1245.277710 116.775040,1332.400269 
	C116.651054,1352.802979 115.943520,1373.501099 108.089455,1393.003174 
	C102.460884,1406.979248 94.248291,1419.073364 82.244553,1428.257690 
	C74.587105,1434.116577 66.681389,1439.710815 58.502586,1444.806885 
	C53.280739,1448.060547 47.356834,1450.187500 41.203758,1453.074951 
	C33.364845,1443.852661 25.522972,1434.626953 18.364395,1426.205200 
	C27.999001,1418.268311 37.640011,1411.199951 46.229076,1403.026245 
	C56.619850,1393.137817 62.685268,1380.623291 63.967369,1366.163086 
	C64.855354,1356.147949 65.846352,1346.098511 65.900421,1336.059570 
	C66.380142,1247.004395 66.660912,1157.947998 66.999573,1068.891968 
	C67.005096,1067.438232 67.000252,1065.984497 67.000252,1064.000122 
	C82.442734,1064.000122 97.385445,1064.000122 112.807129,1064.000732 
z"/>
<path fill="#F8981D" opacity="1.000000" stroke="none" 
	d="
M438.320465,587.315369 
	C447.085663,578.625305 454.846375,569.173462 460.442352,558.086487 
	C465.135712,548.787720 468.002716,538.803711 467.801788,528.521179 
	C467.546570,515.459106 462.913239,503.391418 455.203827,492.820099 
	C446.754608,481.234344 437.414246,470.285828 429.208679,458.538208 
	C418.318329,442.947083 410.372101,425.706146 407.249146,406.934113 
	C403.951721,387.113586 405.401855,367.439667 414.007477,348.733276 
	C423.189423,328.774139 436.782166,312.441528 453.255554,298.044678 
	C470.912476,282.613495 490.042084,269.441284 510.991272,259.146301 
	C530.618347,249.500992 550.519775,240.279343 570.827271,232.194458 
	C588.236633,225.263382 606.389526,220.198685 624.222656,214.336304 
	C624.960510,214.093765 625.791138,214.133545 626.918762,214.774765 
	C620.581116,218.521759 614.165344,222.143692 607.921387,226.040771 
	C593.040100,235.328720 578.035767,244.441681 563.463562,254.196518 
	C548.481995,264.225342 533.452087,274.300568 519.358398,285.506317 
	C502.833282,298.645233 487.099457,312.880798 475.078339,330.522278 
	C467.269531,341.982056 461.345581,354.553558 462.268127,368.695221 
	C462.806427,376.946533 465.069519,385.414551 468.226776,393.098846 
	C475.323120,410.370331 486.694183,425.176392 497.652222,440.147125 
	C505.735626,451.190582 512.998047,462.504974 516.233032,476.202606 
	C519.366760,489.470978 517.783020,502.066925 513.113647,514.446960 
	C505.413361,534.863098 491.282593,550.533508 474.518219,563.761658 
	C463.457611,572.489136 451.407043,579.962036 439.249573,587.845337 
	C438.573059,587.567810 438.446777,587.441589 438.320465,587.315369 
z"/>
<path fill="#5382A1" opacity="1.000000" stroke="none" 
	d="
M273.669647,843.311279 
	C259.565521,839.068726 246.233841,833.822083 235.243408,824.507507 
	C224.924164,815.761780 221.322479,803.350281 235.752747,792.502441 
	C246.757690,784.229492 259.581604,780.502441 272.184296,776.055237 
	C272.872467,775.812378 273.748749,776.102722 274.766632,776.157104 
	C271.833374,778.943787 268.986755,781.398865 266.435944,784.130188 
	C262.632141,788.203186 262.856750,793.661743 267.819183,795.736633 
	C276.004089,799.159241 284.552368,802.303650 293.250366,803.775879 
	C307.791870,806.237366 322.567444,807.331665 337.254425,808.908875 
	C342.007080,809.419250 346.785583,809.763733 351.561523,809.966492 
	C361.492218,810.388062 371.458435,811.310181 381.357056,810.860291 
	C399.788574,810.022644 418.262939,809.029724 436.570709,806.851318 
	C458.322205,804.263245 479.941742,800.507080 501.563904,796.927490 
	C507.722137,795.908020 511.570312,800.068970 516.258179,802.196472 
	C529.520325,808.215393 542.564697,814.714417 555.692139,821.029907 
	C557.103943,821.709167 558.498413,822.424438 561.268005,823.803955 
	C551.471985,827.538818 543.166321,831.424988 534.457581,833.883179 
	C513.127380,839.903870 491.753204,845.913147 470.118103,850.656250 
	C456.555847,853.629517 442.531128,854.981812 428.638367,855.844666 
	C407.975647,857.127869 387.229492,858.155579 366.550293,857.737366 
	C350.342377,857.409546 334.080994,855.379089 318.030365,852.895996 
	C303.230896,850.606506 288.680573,846.706848 273.669647,843.311279 
z"/>
<path fill="#5382A1" opacity="1.000000" stroke="none" 
	d="
M445.321167,637.061218 
	C440.481445,637.730469 436.122681,638.653748 431.723022,638.932556 
	C418.689758,639.758423 405.647491,640.639648 392.595856,640.941528 
	C356.402466,641.778870 320.202698,642.800110 284.005035,642.817444 
	C263.693817,642.827148 243.324341,641.633728 223.084488,639.825500 
	C197.491364,637.538879 171.836914,634.956238 146.998550,627.869324 
	C139.381638,625.695984 131.940399,622.488403 124.901291,618.826782 
	C117.887772,615.178467 116.119736,606.636536 123.936813,600.355835 
	C134.128281,592.167419 146.244644,588.070557 157.911224,582.980713 
	C177.420715,574.469116 197.676468,568.126953 218.498611,563.882080 
	C232.574997,561.012329 246.828094,558.835999 261.095947,557.137268 
	C271.264374,555.926575 281.588806,556.025940 291.996002,556.615173 
	C280.688599,559.742615 269.240906,562.442993 258.107666,566.100586 
	C242.603699,571.193970 227.147629,576.545105 212.050491,582.714417 
	C205.233368,585.500061 199.047729,590.151733 193.111389,594.661987 
	C188.987961,597.794800 189.436249,602.110352 194.190460,604.405579 
	C200.012497,607.216309 206.260880,609.797241 212.588181,610.776794 
	C227.339188,613.060242 242.210785,615.171631 257.100494,615.823364 
	C286.277374,617.100525 315.498047,617.718018 344.704224,617.859192 
	C362.907623,617.947205 381.121674,616.753845 399.323303,615.960632 
	C410.373657,615.479065 421.426605,614.869873 432.447906,613.951721 
	C450.153900,612.476746 467.834961,610.701660 485.525940,609.047241 
	C496.334656,608.036499 507.166595,607.219238 517.943665,605.940735 
	C529.161621,604.610046 540.327759,602.840393 551.513489,601.241455 
	C561.246399,599.850220 570.986023,598.501038 580.702454,597.002197 
	C590.884338,595.431519 601.039185,593.685852 611.215149,592.075623 
	C612.236694,591.914062 613.322815,592.160400 615.882446,592.298462 
	C612.412476,593.942078 610.231384,594.881775 608.135620,595.983765 
	C597.978882,601.324036 587.475464,606.122681 577.802307,612.233093 
	C567.172607,618.947693 555.197571,620.409607 543.490479,622.889465 
	C527.507568,626.275085 511.391663,629.071228 495.273346,631.764160 
	C486.539917,633.223328 477.693054,634.038269 468.878906,634.968933 
	C461.193848,635.780273 453.482910,636.346313 445.321167,637.061218 
z"/>
<path fill="#5382A1" opacity="1.000000" stroke="none" 
	d="
M425.850189,708.999695 
	C446.973083,706.348572 467.660187,703.940735 488.265717,700.967346 
	C503.783997,698.728088 519.190918,695.722656 534.670288,693.198669 
	C535.939148,692.991760 537.768005,693.450317 538.689148,694.300964 
	C549.797546,704.558533 562.545654,712.050598 576.655273,717.338501 
	C577.051331,717.486938 577.287048,718.063293 578.211487,719.185181 
	C560.045471,723.529785 542.385559,727.947083 524.628540,731.931274 
	C513.003906,734.539551 501.283325,736.797058 489.523163,738.702087 
	C478.520874,740.484436 467.421600,741.697205 456.343506,742.974426 
	C443.788025,744.422058 431.235748,746.108887 418.632446,746.874329 
	C404.564850,747.728638 390.442963,747.800781 376.341858,747.962341 
	C361.641144,748.130859 346.913757,748.514099 332.241058,747.851562 
	C318.301239,747.222168 304.350494,745.839783 290.526215,743.914856 
	C275.325287,741.798218 260.179871,739.076599 245.165695,735.886963 
	C232.002151,733.090454 219.307938,728.529968 208.069519,720.894409 
	C204.593552,718.532715 201.356552,715.303467 199.100555,711.774414 
	C194.992569,705.348450 196.967270,696.544312 203.567963,691.003662 
	C217.215057,679.547974 233.381470,673.080811 250.114685,667.859314 
	C250.597748,668.394287 251.080811,668.929260 251.563873,669.464294 
	C248.811707,671.706055 245.619293,673.590210 243.428146,676.287720 
	C241.123367,679.125183 239.080246,682.557800 238.161804,686.055725 
	C236.468079,692.506104 240.567001,696.795593 245.889175,698.778931 
	C253.164627,701.490173 260.784546,703.869446 268.451202,704.814697 
	C284.286194,706.767151 300.226715,708.239197 316.165466,708.891113 
	C343.343994,710.002563 370.552094,710.548828 397.753174,710.864868 
	C406.953461,710.971741 416.170166,709.662170 425.850189,708.999695 
z"/>
<path fill="#5382A1" opacity="1.000000" stroke="none" 
	d="
M174.644302,970.818787 
	C184.135162,972.177856 193.225128,973.466736 202.329712,974.642334 
	C209.008316,975.504639 215.695618,976.326965 222.397552,976.975708 
	C236.810822,978.370850 251.232056,979.688416 265.658386,980.941711 
	C271.251678,981.427673 276.863251,981.776917 282.474030,981.973083 
	C294.411194,982.390320 306.351318,982.813171 318.293701,982.972534 
	C349.564087,983.389954 380.836853,983.949646 412.107544,983.886536 
	C428.986084,983.852539 445.871704,982.833252 462.736603,981.930969 
	C476.231750,981.209045 489.726166,980.253784 503.174500,978.930725 
	C520.652405,977.211243 538.128601,975.346619 555.524963,972.958252 
	C577.422791,969.952026 599.406799,967.179688 621.047119,962.794373 
	C646.295227,957.677917 671.444580,951.733398 696.189209,944.596252 
	C711.788879,940.096802 726.719849,933.099915 741.662720,926.564514 
	C751.676086,922.184998 760.251282,915.434265 767.341492,906.869751 
	C768.386658,912.233337 765.174194,921.866455 760.861328,927.674500 
	C750.410889,941.747925 735.964783,950.570862 720.495911,957.666504 
	C701.157715,966.536926 680.820129,972.790588 660.064270,977.352539 
	C643.152344,981.069702 626.085266,984.172974 608.986023,986.919861 
	C591.832275,989.675415 574.580139,991.881104 557.319519,993.883972 
	C547.334106,995.042725 537.251770,995.410522 527.204468,995.983948 
	C508.558350,997.048279 489.915222,998.261353 471.253540,998.929382 
	C452.660583,999.594849 434.047577,999.788086 415.441193,999.964844 
	C398.110046,1000.129456 380.770996,1000.261047 363.444885,999.923706 
	C347.394775,999.611206 331.346771,998.840698 315.317352,997.929321 
	C302.982819,997.227905 290.646454,996.287659 278.367157,994.940735 
	C247.114746,991.512451 215.871124,987.911621 185.796341,978.013123 
	C183.005493,977.094604 180.258621,976.006958 177.574173,974.811707 
	C175.344650,973.819092 173.237213,972.552307 171.233383,970.324646 
	C172.238815,970.449829 173.244247,970.574951 174.644302,970.818787 
z"/>
<path fill="#5382A1" opacity="1.000000" stroke="none" 
	d="
M767.833435,614.000488 
	C767.877380,616.702820 767.921326,619.405151 767.570435,622.580444 
	C766.320679,623.653809 765.465820,624.254272 764.611023,624.854736 
	C765.351746,625.569702 766.092529,626.284729 766.833252,626.999695 
	C766.092896,638.108521 761.134216,647.634888 755.605835,656.949341 
	C755.273315,657.509644 755.006531,658.108948 754.021484,658.865601 
	C748.154541,660.064575 747.578735,661.014038 749.048584,666.107300 
	C749.007996,666.443604 748.846191,666.704712 747.961304,666.983398 
	C741.923157,668.802063 739.237244,672.043579 739.042114,677.114014 
	C729.471375,688.488098 717.146545,696.430176 704.668579,704.014160 
	C682.183899,717.680420 657.930908,727.429260 632.810730,735.076904 
	C625.519348,737.296753 618.179260,739.356750 610.861511,741.489990 
	C610.515259,740.853699 610.169006,740.217407 609.822754,739.581116 
	C614.446472,736.360840 618.762207,732.525085 623.748779,730.030151 
	C642.312195,720.742615 659.451538,709.187988 675.649170,696.436218 
	C688.712891,686.151611 700.701965,674.571777 710.210938,660.512268 
	C716.990601,650.488159 722.663147,640.219666 724.983276,628.363037 
	C728.201599,611.916321 725.594177,596.571472 714.757385,583.322327 
	C701.347839,566.927490 683.784058,558.439026 662.722290,559.286194 
	C652.953186,559.679138 643.307312,563.135071 632.492737,565.439514 
	C634.292480,563.173218 635.601685,560.969971 637.419739,559.331421 
	C645.250916,552.273682 655.251221,550.174438 665.081360,548.162415 
	C682.611328,544.574280 700.067444,545.276123 717.127686,550.990723 
	C726.332703,554.074158 735.024414,558.238098 742.681885,565.314209 
	C743.123169,568.461609 743.315308,571.004700 747.046326,568.890625 
	C747.652832,569.394043 748.259399,569.897461 748.780518,570.953613 
	C747.479431,575.765137 750.731384,574.709595 752.851379,575.000549 
	C756.560059,581.385132 760.268799,587.769714 763.781860,594.803101 
	C761.010986,600.162109 761.799255,601.983582 766.853271,603.000610 
	C766.890259,603.752930 766.927185,604.505188 766.582642,605.767944 
	C762.866943,610.651733 763.226685,612.353455 767.833435,614.000488 
z"/>
<path fill="#5382A1" opacity="1.000000" stroke="none" 
	d="
M785.309265,1147.339355 
	C787.553650,1145.680298 789.596252,1144.366455 792.707397,1142.365356 
	C792.707397,1150.363403 792.707397,1156.443481 792.707397,1162.751831 
	C791.239258,1162.751831 789.969360,1162.751831 788.218628,1162.751831 
	C788.218628,1160.188721 788.218628,1157.622681 788.218628,1155.056641 
	C787.959106,1155.007935 787.699585,1154.959229 787.440063,1154.910645 
	C786.623840,1156.793457 785.953308,1158.760376 784.934387,1160.526245 
	C784.364380,1161.514160 783.101196,1162.915283 782.356018,1162.800049 
	C781.212341,1162.623169 779.805969,1161.507080 779.294922,1160.420898 
	C778.204956,1158.104370 777.618286,1155.551147 775.999268,1153.145996 
	C775.999268,1154.448853 776.009827,1155.751953 775.996460,1157.054810 
	C775.981140,1158.553345 776.318787,1160.207153 775.783325,1161.494141 
	C775.437744,1162.324707 773.798889,1162.617432 772.214233,1163.416016 
	C772.214233,1156.513062 772.214233,1150.570312 772.214233,1144.276123 
	C775.067871,1143.969238 777.793823,1142.952148 778.963318,1146.956787 
	C779.725708,1149.567139 780.874390,1152.064819 782.344482,1155.904297 
	C783.539124,1152.350464 784.323303,1150.017700 785.309265,1147.339355 
z"/>
<path fill="#5382A1" opacity="1.000000" stroke="none" 
	d="
M763.838989,1144.000000 
	C765.761414,1144.075195 767.217224,1144.150513 768.673096,1144.225708 
	C768.936157,1144.676392 769.199219,1145.127075 769.462280,1145.577759 
	C767.967773,1146.721069 766.473267,1147.864258 764.153320,1149.638916 
	C764.153320,1152.971924 764.153320,1157.556763 764.153320,1162.540161 
	C762.464661,1162.736694 761.093201,1162.896240 759.158569,1163.121338 
	C759.158569,1158.065674 759.158569,1153.347290 759.158569,1148.729248 
	C757.107666,1147.384155 752.454285,1149.172729 754.653809,1144.000000 
	C757.471802,1144.000000 760.422180,1144.000000 763.838989,1144.000000 
z"/>
<path fill="#5382A1" opacity="1.000000" stroke="none" 
	d="
M739.345947,676.967773 
	C739.237244,672.043579 741.923157,668.802063 747.737244,667.058960 
	C745.293213,670.301636 742.471497,673.561523 739.345947,676.967773 
z"/>
<path fill="#5382A1" opacity="1.000000" stroke="none" 
	d="
M767.899353,613.586792 
	C763.226685,612.353455 762.866943,610.651733 766.517029,606.139893 
	C767.210449,608.392029 767.587891,610.782532 767.899353,613.586792 
z"/>
<path fill="#5382A1" opacity="1.000000" stroke="none" 
	d="
M766.791992,602.633667 
	C761.799255,601.983582 761.010986,600.162109 763.820312,595.173828 
	C764.946411,597.352783 765.838562,599.809753 766.791992,602.633667 
z"/>
<path fill="#5382A1" opacity="1.000000" stroke="none" 
	d="
M749.357910,665.956665 
	C747.578735,661.014038 748.154541,660.064575 753.724609,659.041382 
	C752.632629,661.296570 751.149963,663.551331 749.357910,665.956665 
z"/>
<path fill="#5382A1" opacity="1.000000" stroke="none" 
	d="
M752.828613,574.683838 
	C750.731384,574.709595 747.479431,575.765137 748.900208,571.228149 
	C750.338867,572.088928 751.572327,573.228027 752.828613,574.683838 
z"/>
<path fill="#5382A1" opacity="1.000000" stroke="none" 
	d="
M746.912964,568.597534 
	C743.315308,571.004700 743.123169,568.461609 743.002930,565.434875 
	C744.259888,566.134460 745.519714,567.219482 746.912964,568.597534 
z"/>
<path fill="#5382A1" opacity="1.000000" stroke="none" 
	d="
M766.909668,626.651855 
	C766.092529,626.284729 765.351746,625.569702 764.611023,624.854736 
	C765.465820,624.254272 766.320679,623.653809 767.504150,623.026489 
	C767.550537,624.101013 767.268250,625.202515 766.909668,626.651855 
z"/>
<path fill="#5382A1" opacity="1.000000" stroke="none" 
	d="
M706.490723,857.475342 
	C706.041382,857.190063 705.788208,856.722168 705.535034,856.254333 
	C705.967041,856.305237 706.399109,856.356079 706.950073,856.661987 
	C706.941528,857.042236 706.814148,857.167480 706.490723,857.475342 
z"/>
<path fill="#F8981D" opacity="1.000000" stroke="none" 
	d="
M438.885742,587.886353 
	C438.507599,588.291443 437.943054,588.504211 437.378479,588.716919 
	C437.545868,588.377319 437.713257,588.037781 438.100525,587.506836 
	C438.446777,587.441589 438.573059,587.567810 438.885742,587.886353 
z"/>
<path fill="#000000" opacity="1.000000" stroke="none" 
	d="
M626.711060,1281.788818 
	C635.250916,1272.268677 646.570496,1268.807983 658.055054,1267.268799 
	C671.268738,1265.497803 684.742615,1265.664429 698.104492,1265.009766 
	C699.554626,1264.938721 701.011230,1265.000122 703.000549,1265.000122 
	C703.000549,1270.097412 703.000549,1274.713135 703.000549,1279.328979 
	C703.000549,1290.318481 702.604248,1301.328735 703.180603,1312.287842 
	C703.438965,1317.200439 701.316345,1320.036011 697.972839,1322.415894 
	C687.287231,1330.021240 676.205322,1336.904419 663.051208,1339.497192 
	C653.882446,1341.304321 644.937866,1340.867432 636.247742,1337.074463 
	C625.407166,1332.343140 620.751648,1322.949219 619.254333,1312.317749 
	C617.748962,1301.629883 618.758606,1290.866333 626.711060,1281.788818 
z"/>
<path fill="#000000" opacity="1.000000" stroke="none" 
	d="
M202.200745,1326.713257 
	C194.539307,1312.621216 194.632080,1298.564209 202.172653,1285.116821 
	C206.648056,1277.135498 214.638016,1272.603027 223.409332,1270.072632 
	C242.021072,1264.703125 261.120880,1264.692871 280.744507,1265.117920 
	C280.834900,1266.859375 280.987396,1268.453247 280.989441,1270.047363 
	C281.008057,1284.527954 280.849426,1299.011353 281.109711,1313.487305 
	C281.172485,1316.977051 279.828766,1319.199707 277.391022,1321.064331 
	C266.407654,1329.466553 254.797211,1336.763428 240.986328,1339.476440 
	C227.505783,1342.124634 214.949112,1340.472412 204.720459,1330.179932 
	C203.813004,1329.266724 203.199341,1328.061523 202.200745,1326.713257 
z"/>
</svg>